<svg xmlns="http://www.w3.org/2000/svg" viewBox="0 0 438.09 438.09">
  <g id="Layer_2" data-name="Layer 2">
    <circle cx="219.05" cy="219.05" r="219.05" fill="#5f861e"/>
    <path d="M176.05,236a23.93,23.93,0,0,1,6.8-17.39,22.94,22.94,0,0,1,17.2-7,83.12,83.12,0,0,0,29.6-5,43.92,43.92,0,0,0,21-16.21q7.8-11.19,7.8-29.59a43.81,43.81,0,0,0-6.6-24,46.49,46.49,0,0,0-18-16.41,54.55,54.55,0,0,0-25.8-6,55.13,55.13,0,0,0-21,4,65.35,65.35,0,0,0-17.8,10.81,39.79,39.79,0,0,1-15.4,8.19q-9,2.61-18.2-4.19-9.6-7.22-10.4-17.21t7.6-18.39a101.88,101.88,0,0,1,33.8-23,105.16,105.16,0,0,1,41.4-8.21q27.6,0,49.8,12.6a97.85,97.85,0,0,1,35.4,33.81q13.2,21.19,13.2,48,0,20-6,35.4a75.83,75.83,0,0,1-17,26.4,86.07,86.07,0,0,1-25.6,17.6,126.28,126.28,0,0,1-31.8,9.4,12.49,12.49,0,0,0-1.4.79,1.36,1.36,0,0,0-.6,1.21V266.4a24,24,0,0,1-6.8,17.41,24.63,24.63,0,0,1-34.4,0,24,24,0,0,1-6.8-17.41Zm22,126.4q-11.61,0-17.8-6.19t-6.2-17.81v-6.79q0-11.61,6.2-17.8t17.8-6.2h5.2q11.59,0,17.8,6.2t6.2,17.8v6.79q0,11.61-6.2,17.81t-17.8,6.19Z" fill="#fff"/>
  </g>
</svg>
