<svg xmlns="http://www.w3.org/2000/svg" viewBox="0 0 1536.82 1942.45">
  <g id="Layer_2" data-name="Layer 2">
    <g>
      <path d="M538.74,663.37l22,8.15c40.3,14.93,67.13,53.82,65.65,96.78-.59,17.22-224.71,278.22-297.1,415S8.91,1880,478.09,1802.61c126.47-20.85,412.12,53.92,594.37,11.78,75.58-17.47,172.79-28.19,228.1-97.16,87.29-108.85,29.14-285.11-19.54-436.37C1207.1,1051.17,1085.26,892,1085.26,892c-61-79.68-116.66-130.12-100.53-184.24,21.2-71.16,161-58,169-147.89,4.26-47.66-61.16-34-86.66-50.89-79-52.3-44.79-136.31-110.4-122-92.51,20.11-200.25,112-246.88,143-189.19,126-47.69-162.43-91-124.15C588.13,432.94,558,516,526.45,542c-86.15,71.07-55-64.18-69.57-59.56-28.48,9-48.62,34.91-49.41,64.78-.26,9.89,1.66,19.76,7.35,28.31s14.53,18,24.19,26.92A300.07,300.07,0,0,0,538.74,663.37Z" fill="#41739d"/>
      <path d="M709.81,530q3.38-2.25,7.17-4.91c-8.25-11.22-17.17-23.11-26.58-35.32-47.58-61.68-63.77-86.55-63.77-86.55h0C637.94,419.24,538.83,643.87,709.81,530Z" fill="#073766"/>
      <path d="M518.92,548,459.06,483.1C464.15,503.38,451.47,599.48,518.92,548Z" fill="#073766"/>
      <g>
        <path d="M648.79,957.71A23.47,23.47,0,0,1,625.35,935c-1-33,1.14-79.08,27.17-143.6,12.57-31.16,27.65-51.19,41-68.86,1.86-2.47,3.71-4.93,5.52-7.38a23.47,23.47,0,1,1,37.73,27.91c-1.89,2.56-3.81,5.11-5.75,7.69-12.13,16.11-24.67,32.77-34.93,58.2-22.76,56.4-24.66,96.2-23.78,124.58a23.46,23.46,0,0,1-22.73,24.18Z" fill="#fff"/>
        <path d="M944.48,879.7a23.47,23.47,0,0,1-23-18.8A237.12,237.12,0,0,0,857.44,741a23.47,23.47,0,0,1,33.35-33A284.34,284.34,0,0,1,967.5,851.55a23.51,23.51,0,0,1-23,28.15Z" fill="#fff"/>
        <path d="M992.81,720.6a21.76,21.76,0,0,1-5.39-.68C891,695.39,793,686.79,696.1,694.35c-35.2,2.75-62.43,8.77-91.26,15.13-5.4,1.2-11,2.43-16.66,3.65A21.81,21.81,0,0,1,579,670.48c5.55-1.19,11.08-2.42,16.42-3.6,30.36-6.7,59-13,97.27-16,101.69-7.93,204.47,1.08,305.48,26.78a21.82,21.82,0,0,1-5.37,43Z" fill="#bfbfbf"/>
        <path d="M609.25,777.37a23.47,23.47,0,0,1-7.63-45.66A1396.85,1396.85,0,0,1,813,677.16c50.93-9,90-7.42,127.85-5.92,18.51.73,36,1.42,54.53.88A23.47,23.47,0,0,1,996.78,719c-20.16.59-39.28-.17-57.77-.9-37-1.46-71.88-2.84-117.86,5.25a1350.93,1350.93,0,0,0-204.28,52.71A23.31,23.31,0,0,1,609.25,777.37Z" fill="#e2e2e2"/>
        <path d="M612.6,781.4a23.48,23.48,0,0,1-7.78-45.62c42.79-15,101.38-35.61,187.51-42.81,74.73-6.24,133.33,4.69,180.41,13.48,6.75,1.26,13.13,2.45,19.41,3.56a23.47,23.47,0,1,1-8.22,46.21c-6.47-1.15-12.95-2.36-19.8-3.64-46.62-8.7-99.46-18.56-167.89-12.84-74.12,6.2-123.49,21.93-175.86,40.32A23.29,23.29,0,0,1,612.6,781.4Z" fill="#fff"/>
      </g>
    </g>
  </g>
</svg>
