<svg xmlns="http://www.w3.org/2000/svg" viewBox="0 0 1536.82 1942.45">
  <g id="Layer_2" data-name="Layer 2">
    <g>
      <g>
        <g>
          <rect x="743.55" y="319.48" width="399.79" height="199.89" transform="matrix(0.52, -0.85, 0.85, 0.52, 95.45, 1008.41)" fill="#ebe3f0"/>
          <rect x="834.5" y="309.72" width="229.75" height="199.89" transform="translate(106.65 1008.78) rotate(-58.75)" fill="#e1d1f2"/>
          <rect x="803.15" y="479.19" width="43.01" height="28.64" transform="translate(-25.06 942.51) rotate(-58.75)" fill="#127dc6"/>
          <rect x="811.44" y="411.91" width="98.45" height="11.99" transform="translate(56.91 936.91) rotate(-58.75)" fill="#c69edb"/>
          <rect x="931.18" y="522.17" width="78.4" height="16.49" transform="translate(13.52 1084.86) rotate(-58.75)" fill="#c69edb"/>
          <polygon points="1060.73 355.09 1011.36 324.27 1045.02 268.43 952.3 212.16 880.31 330.81 1051.21 434.5 1123.2 315.86 1095.08 298.8 1060.73 355.09" fill="#d4c3ea"/>
          <g>
            <polygon points="923.87 452.83 919.46 460.01 911.16 458 916.61 464.44 912.45 471.65 920.55 467.82 925.85 474.41 925.03 466.42 932.5 463.44 924.26 461.71 923.87 452.83" fill="#c69edb"/>
            <polygon points="926.89 344.88 922.48 352.05 914.19 350.04 919.63 356.48 915.48 363.69 923.57 359.86 928.87 366.45 928.06 358.46 935.52 355.49 927.28 353.75 926.89 344.88" fill="#c69edb"/>
            <polygon points="903.39 368.02 898.98 375.19 890.68 373.18 896.13 379.62 891.97 386.83 900.07 383 905.37 389.59 904.56 381.6 912.02 378.63 903.78 376.89 903.39 368.02" fill="#c69edb"/>
            <polygon points="894.11 398.91 889.7 406.08 881.4 404.07 886.85 410.51 882.69 417.72 890.79 413.89 896.09 420.48 895.27 412.49 902.74 409.52 894.5 407.78 894.11 398.91" fill="#c69edb"/>
            <polygon points="900.11 429.61 895.71 436.79 887.41 434.78 892.86 441.21 888.7 448.43 896.8 444.6 902.1 451.19 901.28 443.19 908.75 440.23 900.5 438.49 900.11 429.61" fill="#c69edb"/>
            <polygon points="955.92 462.38 951.51 469.55 943.22 467.54 948.66 473.98 944.5 481.19 952.6 477.36 957.9 483.95 957.09 475.96 964.55 472.99 956.31 471.25 955.92 462.38" fill="#c69edb"/>
            <polygon points="984.86 455.29 980.45 462.47 972.15 460.46 977.6 466.89 973.44 474.11 981.54 470.28 986.84 476.87 986.03 468.87 993.49 465.9 985.25 464.17 984.86 455.29" fill="#c69edb"/>
            <polygon points="1008.88 432.03 1004.47 439.2 996.17 437.19 1001.62 443.63 997.46 450.84 1005.56 447.01 1010.86 453.6 1010.04 445.61 1017.51 442.64 1009.27 440.9 1008.88 432.03" fill="#c69edb"/>
          </g>
          <g>
            <path d="M923,547l6.84-11.28,3.31,2-4.51,7.43,2.12,1.28,4.08-6.72,3.07,1.86-4.08,6.72,2.22,1.35,4.57-7.53,3.3,2L937,555.51Z" fill="#9d73a8"/>
            <path d="M938.82,538.6,931,533.83l2.39-3.94,7.79,4.72c2,1.23,3.61.79,4.55-.77s.65-3.14-1.31-4.33l-7.89-4.79,2.39-4,7.77,4.72c4.52,2.74,4.94,6.53,2.52,10.51S943.2,541.27,938.82,538.6Z" fill="#9d73a8"/>
            <path d="M940.27,518.47l4-6.63c1.3-2.14,2.76-3.28,4.27-3.65a5.62,5.62,0,0,1,6.64,6.27l6.91-.38-2.72,4.48-6,.25-1,1.7,4.24,2.58L954.29,527Zm10.64-2.37c.8-1.32.62-2.47-.44-3.11s-2.15-.21-2.94,1.09L946,516.63l3.36,2Z" fill="#9d73a8"/>
            <path d="M955.72,508.8a8.83,8.83,0,1,1,11.86-3.1A8.58,8.58,0,0,1,955.72,508.8Zm6.76-11.13a4.26,4.26,0,0,0-6,1.31,4.19,4.19,0,0,0,1.63,5.84,4.26,4.26,0,0,0,6-1.29A4.2,4.2,0,0,0,962.48,497.67Z" fill="#9d73a8"/>
          </g>
          <g opacity="0.2">
            <path d="M904.9,598.15l-6,10,4.71,3.89a16.15,16.15,0,0,1,1-1.93,13.43,13.43,0,0,1,5.46-5.26,8.63,8.63,0,0,1,8.61.6c4.93,3,6.48,9.51,2.63,15.87a17.37,17.37,0,0,1-5.69,5.94L912.52,624a15.27,15.27,0,0,0,4.82-4.87c1.73-2.85,1.76-6.6-1.32-8.45s-6.25-.8-9.38,4.35a30.6,30.6,0,0,0-1.9,3.69l-12-9.59,8.13-13.4Z" fill="#9d73a8"/>
            <path d="M925.47,583.86c8.33,5,11.57,11.47,7.81,17.67-3.62,6-11,5.83-18.86,1.11-8-4.89-11.37-11.58-7.7-17.62C910.52,578.76,917.86,579.25,925.47,583.86Zm-8.08,13.86c6.3,3.83,10.61,4.09,12.25,1.39,1.76-2.91-.85-6.51-7-10.27-6-3.65-10.41-4.38-12.21-1.42C908.82,590,910.92,593.8,917.39,597.72Z" fill="#9d73a8"/>
            <path d="M937.32,564.33c8.33,5,11.57,11.47,7.81,17.66-3.61,6-11,5.83-18.86,1.11-8-4.88-11.36-11.58-7.7-17.62C922.37,559.23,929.72,559.71,937.32,564.33Zm-8.07,13.85c6.3,3.84,10.6,4.09,12.24,1.39,1.76-2.9-.84-6.5-7-10.26-6-3.66-10.41-4.38-12.2-1.42C920.67,570.48,922.78,574.26,929.25,578.18Z" fill="#9d73a8"/>
          </g>
          <polygon points="906.32 386.6 1030.54 449.87 1096.26 341.57 1085.87 335.27 1076.07 351.43 1059.91 341.62 1064.47 334.12 1027.54 311.72 1032.79 303.06 988.37 276.11 944.95 347.66 906.32 386.6" fill="#c69edb"/>
        </g>
        <path d="M1061.39,282l-1.24.31-3.32-2-2,3.32-1.24.31a10.59,10.59,0,0,0-7.77,12.8l.3,1.24-2,3.32,3.32,2,.3,1.24a10.59,10.59,0,0,0,12.8,7.77l1.24-.3,3.32,2,2-3.32,1.23-.3a10.59,10.59,0,0,0,7.77-12.81l-.3-1.23,2-3.32-3.32-2-.31-1.24A10.59,10.59,0,0,0,1061.39,282Z" fill="#127dc6"/>
        <g>
          <path d="M919.68,314.54l-13,21.45,10.16,8.39a33.85,33.85,0,0,1,2.2-4.17c3-4.87,7-9.11,11.76-11.33,5.25-2.63,11.84-2.8,18.58,1.29,10.62,6.45,14,20.51,5.66,34.22-3.92,6.47-8.83,10.87-12.26,12.8l-6.67-7a32.94,32.94,0,0,0,10.39-10.49c3.74-6.16,3.8-14.23-2.84-18.22-6.39-3.84-13.48-1.73-20.22,9.38a60.87,60.87,0,0,0-4.09,7.95l-25.93-20.68,17.52-28.89Z" fill="#9d73a8"/>
          <path d="M965.22,281.75c18,10.9,24.95,24.74,16.84,38.1-7.79,12.83-23.63,12.56-40.66,2.38-17.34-10.52-24.5-25-16.6-38C933,270.76,948.83,271.8,965.22,281.75Zm-17.41,29.87c13.58,8.28,22.87,8.83,26.41,3,3.79-6.25-1.82-14-15.18-22.13-13-7.88-22.45-9.44-26.32-3.06C929.33,295,933.87,303.18,947.81,311.62Z" fill="#9d73a8"/>
          <path d="M990.84,239.54c18,10.9,24.94,24.74,16.83,38.09C999.89,290.47,984,290.2,967,280c-17.34-10.52-24.51-25-16.6-38C958.6,228.55,974.44,229.59,990.84,239.54Zm-17.42,29.87c13.59,8.28,22.88,8.83,26.41,3,3.8-6.26-1.82-14-15.18-22.13-13-7.88-22.44-9.44-26.31-3.06C954.94,252.81,959.48,261,973.42,269.41Z" fill="#9d73a8"/>
        </g>
      </g>
      <g>
        <g>
          <rect x="558.5" y="287.08" width="439.02" height="219.51" transform="translate(362.07 1164.8) rotate(-88.58)" fill="#e7f4eb"/>
          <rect x="648.02" y="270.28" width="260.83" height="219.51" transform="translate(379.28 1148.84) rotate(-88.58)" fill="#cce3ce"/>
          <rect x="681.71" y="516.58" width="47.23" height="31.45" transform="translate(155.75 1224.26) rotate(-88.58)" fill="#127dc6"/>
          <rect x="644.27" y="434.02" width="108.11" height="13.17" transform="translate(240.59 1127.83) rotate(-88.58)" fill="#a9d9a8"/>
          <rect x="821.26" y="478.8" width="86.1" height="18.11" transform="matrix(0.02, -1, 1, 0.02, 355.24, 1339.84)" fill="#a9d9a8"/>
          <path d="M858,216.53c-.73,29.58-16.53,53.19-35.29,52.73S789.29,244.43,790,214.85a82.13,82.13,0,0,1,2.26-17.35l-119-2.94L669.46,346.9l219.44,5.43L892.67,200l-36.11-.89A82.15,82.15,0,0,1,858,216.53Z" fill="#a9d9a8"/>
          <g>
            <polygon points="777.61 439.36 777.33 448.6 768.33 451.21 777.04 454.37 777.02 463.52 782.64 455.44 791.28 458.82 786.14 451.65 791.63 444.75 782.83 447.6 777.61 439.36" fill="#93cc92"/>
            <polygon points="721.52 334.86 721.24 344.1 712.24 346.72 720.94 349.88 720.92 359.02 726.54 350.95 735.19 354.33 730.05 347.16 735.54 340.25 726.74 343.1 721.52 334.86" fill="#93cc92"/>
            <polygon points="711.77 369.75 711.49 378.99 702.49 381.6 711.19 384.76 711.17 393.9 716.8 385.83 725.44 389.21 720.3 382.04 725.79 375.14 716.99 377.98 711.77 369.75" fill="#93cc92"/>
            <polygon points="719.8 404.24 719.52 413.48 710.52 416.1 719.23 419.26 719.21 428.4 724.83 420.33 733.48 423.71 728.34 416.54 733.82 409.63 725.02 412.48 719.8 404.24" fill="#93cc92"/>
            <polygon points="742.3 430.21 742.02 439.45 733.02 442.07 741.72 445.23 741.7 454.37 747.33 446.3 755.97 449.68 750.83 442.51 756.32 435.6 747.52 438.45 742.3 430.21" fill="#93cc92"/>
            <polygon points="813.36 430.94 813.08 440.18 804.08 442.79 812.78 445.95 812.76 455.1 818.38 447.02 827.03 450.4 821.89 443.23 827.38 436.33 818.58 439.17 813.36 430.94" fill="#93cc92"/>
            <polygon points="837.06 408.38 836.78 417.62 827.78 420.24 836.48 423.4 836.46 432.54 842.08 424.47 850.73 427.85 845.59 420.68 851.08 413.77 842.28 416.62 837.06 408.38" fill="#93cc92"/>
            <polygon points="847.23 373.09 846.95 382.33 837.95 384.95 846.65 388.11 846.63 397.25 852.25 389.18 860.9 392.56 855.76 385.39 861.25 378.49 852.45 381.33 847.23 373.09" fill="#93cc92"/>
          </g>
          <g>
            <path d="M828.19,529.56l.36-14.47,4.24.1-.24,9.54,2.73.07.21-8.64,3.94.1-.22,8.64,2.86.07.24-9.67,4.24.1L846.19,530Z" fill="#4d7749"/>
            <path d="M838.71,512.89l-10.1-.25.12-5.06,10,.25c2.6.06,3.87-1.22,3.92-3.23s-1.1-3.34-3.62-3.4L828.9,501l.12-5.07,10,.25c5.81.14,8.27,3.52,8.15,8.64S844.34,513,838.71,512.89Z" fill="#4d7749"/>
            <path d="M829.1,492.92l.21-8.51c.06-2.75.83-4.64,2.07-5.82a5.73,5.73,0,0,1,4.31-1.48,5.67,5.67,0,0,1,5.43,3.84l6.38-4.14-.14,5.76-5.54,3.49-.05,2.18,5.45.14-.13,5Zm8.84-8.07c0-1.69-.76-2.69-2.12-2.72s-2.16,1-2.2,2.64l-.08,3.27,4.32.11Z" fill="#4d7749"/>
            <path d="M838.54,475.27a9.7,9.7,0,1,1,9.59-9.44A9.43,9.43,0,0,1,838.54,475.27Zm.35-14.3a4.67,4.67,0,0,0-5,4.51,4.59,4.59,0,0,0,4.74,4.67,4.67,4.67,0,0,0,5-4.48A4.62,4.62,0,0,0,838.89,461Z" fill="#4d7749"/>
          </g>
          <g opacity="0.2">
            <path d="M839.13,599.42v.11l2.89,6.14-4.76,1-3.79-8.21.13-5.24,33.2.82-.15,6.08Z" fill="#4d7749"/>
            <path d="M850.7,564.17c10.69.26,17.28,4.61,17.09,12.56-.19,7.64-7.26,11.54-17.36,11.36-10.33-.26-17.15-4.82-17-12.58C833.67,567.48,840.93,563.93,850.7,564.17Zm-.13,17.61c8.1.21,12.34-1.9,12.43-5.37.09-3.72-4.36-5.73-12.31-5.93-7.74-.19-12.31,1.52-12.41,5.32C838.2,579.13,842.27,581.58,850.57,581.78Z" fill="#4d7749"/>
            <path d="M851.32,539.08c10.69.27,17.28,4.61,17.09,12.57-.19,7.64-7.26,11.53-17.36,11.35-10.33-.25-17.15-4.82-17-12.58C834.29,542.39,841.55,538.84,851.32,539.08Zm-.13,17.61c8.1.21,12.34-1.9,12.43-5.37.09-3.72-4.36-5.73-12.31-5.93-7.74-.19-12.31,1.52-12.41,5.32C838.82,554,842.89,556.49,851.19,556.69Z" fill="#4d7749"/>
          </g>
          <path d="M766,379.73l113.34,2.8,1-41.46-51-1.26c-13.61-.33-24.46-7.87-24.07-23.61h0c.39-15.73,11.6-22.72,25.21-22.39l51,1.26,1.07-43.58-113.34-2.8Z" fill="#93cc92"/>
        </g>
        <path d="M815.28,201.47l-1,1-4.26-.11-.11,4.27-1,1a11.62,11.62,0,0,0-.41,16.44l1,1-.11,4.26,4.26.11,1,1a11.63,11.63,0,0,0,16.44.41l1-1,4.27.11.1-4.27,1-1a11.63,11.63,0,0,0,.4-16.44l-1-1L837,203l-4.26-.1-1-1A11.64,11.64,0,0,0,815.28,201.47Z" fill="#127dc6"/>
        <g>
          <path d="M698.38,339v.21l6.25,13.25-10.28,2.11-8.17-17.69.28-11.3L758,327.36l-.33,13.11Z" fill="#4d7749"/>
          <path d="M723.17,269.26c23.06.57,37.27,9.94,36.85,27.09-.41,16.48-15.65,24.88-37.43,24.48-22.27-.55-37-10.39-36.56-27.11C686.45,276.4,702.11,268.74,723.17,269.26Zm-.27,38c17.46.46,26.61-4.09,26.79-11.57.2-8-9.39-12.37-26.55-12.79-16.67-.41-26.54,3.27-26.74,11.46C696.22,301.51,705,306.8,722.9,307.23Z" fill="#4d7749"/>
          <path d="M724.51,215.06c23.06.57,37.27,9.93,36.85,27.09-.41,16.47-15.65,24.88-37.43,24.48-22.27-.55-37-10.39-36.56-27.12C687.79,222.2,703.45,214.54,724.51,215.06Zm-.27,38c17.46.46,26.61-4.1,26.79-11.57.2-8-9.4-12.37-26.55-12.79-16.67-.42-26.54,3.26-26.74,11.46C697.56,247.31,706.34,252.6,724.24,253Z" fill="#4d7749"/>
        </g>
      </g>
      <g>
        <g>
          <rect x="501.59" y="277.74" width="225.97" height="451.94" transform="translate(-160.96 330.59) rotate(-26.75)" fill="#f4f0dc"/>
          <rect x="472.78" y="375.43" width="268.16" height="225.97" transform="translate(443.93 1250.18) rotate(-116.75)" fill="#ffddb7"/>
          <rect x="518.3" y="301.5" width="102.59" height="225.97" transform="translate(455.89 1109.69) rotate(-116.75)" fill="#efbb97"/>
          <rect x="590.13" y="645.78" width="48.63" height="32.38" transform="translate(299.95 1508.64) rotate(-116.75)" fill="#127dc6"/>
          <rect x="507.88" y="575.38" width="111.29" height="13.56" transform="translate(297.37 1347.43) rotate(-116.75)" fill="#e5ae89"/>
          <rect x="704.36" y="557.98" width="88.63" height="18.64" transform="translate(579.14 1491.21) rotate(-116.75)" fill="#e5ae89"/>
          <polygon points="544.04 440.69 548.3 449.26 541.37 456.04 550.85 454.67 555.3 463.02 556.49 452.91 566.02 451.77 557.83 447.74 559.47 438.76 552.83 445.66 544.04 440.69" fill="#91c3e8" opacity="0.8"/>
          <g>
            <polygon points="634.87 542.49 639.11 551.01 632.21 557.76 641.65 556.4 646.07 564.71 647.25 554.65 656.74 553.51 648.59 549.51 650.22 540.57 643.62 547.43 634.87 542.49" fill="#e5ae89"/>
            <polygon points="533.18 474.93 537.42 483.45 530.52 490.2 539.96 488.83 544.38 497.14 545.56 487.08 555.05 485.95 546.9 481.94 548.53 473 541.92 479.87 533.18 474.93" fill="#e5ae89"/>
            <polygon points="541.29 511.32 545.53 519.84 538.63 526.59 548.07 525.23 552.49 533.53 553.67 523.47 563.16 522.34 555.01 518.33 556.63 509.4 550.03 516.26 541.29 511.32" fill="#e5ae89"/>
            <polygon points="565.35 538.72 569.58 547.24 562.69 553.99 572.12 552.63 576.54 560.94 577.72 550.88 587.21 549.74 579.07 545.74 580.69 536.8 574.09 543.66 565.35 538.72" fill="#e5ae89"/>
            <polygon points="598.38 551.36 602.62 559.88 595.73 566.63 605.16 565.26 609.58 573.57 610.76 563.51 620.25 562.38 612.1 558.37 613.73 549.43 607.13 556.29 598.38 551.36" fill="#e5ae89"/>
            <polygon points="663.22 517.48 667.46 526 660.56 532.75 669.99 531.39 674.42 539.69 675.6 529.63 685.09 528.5 676.94 524.49 678.56 515.56 671.96 522.42 663.22 517.48" fill="#e5ae89"/>
            <polygon points="673.76 485.49 678 494.01 671.11 500.76 680.54 499.4 684.97 507.71 686.14 497.65 695.63 496.51 687.49 492.51 689.11 483.57 682.51 490.43 673.76 485.49" fill="#e5ae89"/>
            <polygon points="665.85 448.53 670.08 457.05 663.19 463.8 672.62 462.44 677.04 470.74 678.22 460.68 687.71 459.55 679.57 455.54 681.19 446.61 674.59 453.47 665.85 448.53" fill="#e5ae89"/>
          </g>
          <polygon points="641.6 421.7 645.84 430.22 638.94 436.97 648.38 435.61 652.8 443.91 653.98 433.85 663.47 432.72 655.32 428.71 656.95 419.78 650.34 426.64 641.6 421.7" fill="#91c3e8" opacity="0.8"/>
          <g>
            <path d="M736.17,622.71l-6.71-13.31,3.9-2,4.43,8.77,2.5-1.26-4-7.94,3.61-1.83,4,8,2.62-1.33-4.48-8.89,3.9-2,6.77,13.42Z" fill="#bf5b34"/>
            <path d="M737.62,602.47l-9.29,4.68L726,602.49l9.2-4.63c2.39-1.21,2.91-3,2-4.83s-2.62-2.5-4.94-1.33l-9.31,4.69-2.35-4.66,9.17-4.62c5.34-2.69,9.22-.82,11.59,3.88S742.8,599.85,737.62,602.47Z" fill="#bf5b34"/>
            <path d="M719.19,589l-4-7.82c-1.27-2.53-1.49-4.61-.94-6.29a6.35,6.35,0,0,1,10-2.6l3.78-6.85,2.67,5.29-3.33,5.86,1,2,5-2.53,2.32,4.59Zm4.1-11.61c-.78-1.56-2-2.08-3.25-1.45s-1.48,1.94-.71,3.47l1.52,3,4-2Z" fill="#bf5b34"/>
            <path d="M719.18,568.41a10,10,0,1,1,4.12-13.23A9.7,9.7,0,0,1,719.18,568.41Zm-6.63-13.15a4.81,4.81,0,0,0-2.32,6.51,4.73,4.73,0,0,0,6.58,1.93,4.81,4.81,0,0,0,2.33-6.48A4.75,4.75,0,0,0,712.55,555.26Z" fill="#bf5b34"/>
          </g>
          <g opacity="0.2">
            <path d="M761.49,645.62l6.53,13,7.23-2.42a22,22,0,0,1-1.37-2.35,16.78,16.78,0,0,1-2-9.25,10.8,10.8,0,0,1,6.33-8.72c6.42-3.23,14.34-.57,18.52,7.71a21.54,21.54,0,0,1,2.52,10l-5.48,1.12a19.1,19.1,0,0,0-2-8.32c-1.88-3.72-5.82-6.22-9.82-4.19-3.83,2-5,6.08-1.59,12.8a35.55,35.55,0,0,0,2.65,4.44L765,665.73l-8.8-17.45Z" fill="#bf5b34"/>
            <path d="M760.14,614.77c10.86-5.47,19.79-4.65,23.86,3.42,3.9,7.75-1.08,15.45-11.3,20.68-10.48,5.28-19.76,4.37-23.72-3.5C744.87,627.22,750.24,619.77,760.14,614.77Zm9.32,17.7c8.23-4.12,11.34-8.51,9.57-12-1.91-3.78-7.44-3.41-15.51.66-7.85,4-11.52,8.12-9.57,12C755.65,636.45,761,636.73,769.46,632.47Z" fill="#bf5b34"/>
          </g>
          <path d="M508,432.1l31.34,22.53-.21,8.7,35.65,26.3,114.57-57.75-17.79-35.3-16.84-33.39-19.87-39.42-125.18,63.1Zm115.35-30.32,16.27,32.28-47.81,24.1c-8.21,4.14-18.51.27-23-8.64h0c-4.49-8.92-1.48-19.5,6.73-23.64Zm-25.19-32.95,10.53,20.89-55.84,28.15L542.32,397Z" fill="#e5ae89"/>
          <rect x="461.48" y="309.66" width="60.35" height="105.01" transform="translate(389.59 964.22) rotate(-116.75)" fill="#fbd5b2"/>
          <g>
            <path d="M490.84,445.66l12.81,25.41,14.17-4.73a40.44,40.44,0,0,1-2.68-4.62c-2.9-5.79-4.53-12.25-3.83-18.13.62-6.63,4.42-13.07,12.41-17.1,12.59-6.35,28.13-1.13,36.32,15.12,3.87,7.66,5.16,15,5,19.5l-10.75,2.2A37.45,37.45,0,0,0,550.39,447c-3.68-7.29-11.4-12.21-19.24-8.21-7.53,3.83-9.77,11.92-3.13,25.09a71.15,71.15,0,0,0,5.19,8.71l-35.49,12.52-17.25-34.22Z" fill="#bf5b34"/>
            <path d="M485.48,379.79c21.28-10.73,38.8-9.13,46.78,6.7,7.66,15.21-2.12,30.29-22.15,40.55-20.55,10.36-38.74,8.57-46.52-6.86C455.53,404.2,466.06,389.59,485.48,379.79Zm18.28,34.71c16.13-8.09,22.24-16.7,18.76-23.6-3.74-7.41-14.59-6.68-30.42,1.3-15.39,7.76-22.58,15.92-18.77,23.48C476.67,422.31,487.25,422.84,503.76,414.5Z" fill="#bf5b34"/>
          </g>
        </g>
        <rect x="578.61" y="289.14" width="60.35" height="27.96" transform="translate(612.17 983.18) rotate(-116.75)" fill="#fbd5b2"/>
        <path d="M553.45,308.31l-.45,1.37-3.92,2,2,3.92-.46,1.37a12,12,0,0,0,7.63,15.12l1.36.45,2,3.92,3.92-2,1.37.45A12,12,0,0,0,582,327.29l.45-1.37,3.92-2-2-3.92.45-1.37a12,12,0,0,0-7.62-15.12l-1.37-.45-2-3.92-3.92,2-1.37-.45A12,12,0,0,0,553.45,308.31Z" fill="#127dc6"/>
        <rect x="546.07" y="460.51" width="312.68" height="9.32" transform="translate(603.24 1301.79) rotate(-116.75)" fill="#e5ae89"/>
      </g>
    </g>
    <g>
      <path d="M538.74,663.37l22,8.15c40.3,14.93,67.13,53.82,65.65,96.78-.59,17.22-224.71,278.22-297.1,415S8.91,1880,478.09,1802.61c126.47-20.85,412.12,53.92,594.37,11.78,75.58-17.47,172.79-28.19,228.1-97.16,87.29-108.85,29.14-285.11-19.54-436.37C1207.1,1051.17,1085.26,892,1085.26,892c-61-79.68-116.66-130.12-100.53-184.24,21.2-71.16,161-58,169-147.89,4.26-47.66-61.16-34-86.66-50.89-79-52.3-44.79-136.31-110.4-122-92.51,20.11-200.25,112-246.88,143-189.19,126-47.69-162.43-91-124.15C588.13,432.94,558,516,526.45,542c-86.15,71.07-55-64.18-69.57-59.56-28.48,9-48.62,34.91-49.41,64.78-.26,9.89,1.66,19.76,7.35,28.31s14.53,18,24.19,26.92A300.07,300.07,0,0,0,538.74,663.37Z" fill="#41739d"/>
      <path d="M709.81,530q3.38-2.25,7.17-4.91c-8.25-11.22-17.17-23.11-26.58-35.32-47.58-61.68-63.77-86.55-63.77-86.55h0C637.94,419.24,538.83,643.87,709.81,530Z" fill="#073766"/>
      <path d="M518.92,548,459.06,483.1C464.15,503.38,451.47,599.48,518.92,548Z" fill="#073766"/>
      <g>
        <path d="M648.79,957.71A23.47,23.47,0,0,1,625.35,935c-1-33,1.14-79.08,27.17-143.6,12.57-31.16,27.65-51.19,41-68.86,1.86-2.47,3.71-4.93,5.52-7.38a23.47,23.47,0,1,1,37.73,27.91c-1.89,2.56-3.81,5.11-5.75,7.69-12.13,16.11-24.67,32.77-34.93,58.2-22.76,56.4-24.66,96.2-23.78,124.58a23.46,23.46,0,0,1-22.73,24.18Z" fill="#fff"/>
        <path d="M944.48,879.7a23.47,23.47,0,0,1-23-18.8A237.12,237.12,0,0,0,857.44,741a23.47,23.47,0,0,1,33.35-33A284.34,284.34,0,0,1,967.5,851.55a23.51,23.51,0,0,1-23,28.15Z" fill="#fff"/>
        <path d="M992.81,720.6a21.76,21.76,0,0,1-5.39-.68C891,695.39,793,686.79,696.1,694.35c-35.2,2.75-62.43,8.77-91.26,15.13-5.4,1.2-11,2.43-16.66,3.65A21.81,21.81,0,0,1,579,670.48c5.55-1.19,11.08-2.42,16.42-3.6,30.36-6.7,59-13,97.27-16,101.69-7.93,204.47,1.08,305.48,26.78a21.82,21.82,0,0,1-5.37,43Z" fill="#bfbfbf"/>
        <path d="M609.25,777.37a23.47,23.47,0,0,1-7.63-45.66A1396.85,1396.85,0,0,1,813,677.16c50.93-9,90-7.42,127.85-5.92,18.51.73,36,1.42,54.53.88A23.47,23.47,0,0,1,996.78,719c-20.16.59-39.28-.17-57.77-.9-37-1.46-71.88-2.84-117.86,5.25a1350.93,1350.93,0,0,0-204.28,52.71A23.31,23.31,0,0,1,609.25,777.37Z" fill="#e2e2e2"/>
        <path d="M612.6,781.4a23.48,23.48,0,0,1-7.78-45.62c42.79-15,101.38-35.61,187.51-42.81,74.73-6.24,133.33,4.69,180.41,13.48,6.75,1.26,13.13,2.45,19.41,3.56a23.47,23.47,0,1,1-8.22,46.21c-6.47-1.15-12.95-2.36-19.8-3.64-46.62-8.7-99.46-18.56-167.89-12.84-74.12,6.2-123.49,21.93-175.86,40.32A23.29,23.29,0,0,1,612.6,781.4Z" fill="#fff"/>
      </g>
    </g>
  </g>
</svg>
