<svg xmlns="http://www.w3.org/2000/svg" viewBox="0 0 1146.6 1442.17">
  <g id="Layer_2" data-name="Layer 2">
    <g>
      <path d="M339.77,278l22,8.14C402.07,301.11,428.9,340,427.42,383c-.59,17.23-224.71,278.22-297.1,415s-320.39,696.71,148.8,619.36c126.47-20.85,412.12,53.91,594.37,11.78,75.58-17.48,172.79-28.2,228.1-97.17,87.29-108.85,29.14-285.11-19.54-436.37-73.92-229.69-195.77-388.85-195.77-388.85-61-79.67-116.65-130.12-100.52-184.23,21.2-71.17,161-58,169-147.9,4.25-47.65-61.16-34-86.66-50.89-79-52.3-44.79-136.31-110.41-122-92.5,20.11-200.25,112-246.87,143-189.19,126-47.69-162.43-91-124.15-30.67,27.12-60.77,110.17-92.35,136.22-86.15,71.06-55-64.19-69.57-59.57-28.48,9-48.62,34.92-49.41,64.78-.26,9.89,1.65,19.76,7.35,28.31s14.52,18,24.19,26.92A300.27,300.27,0,0,0,339.77,278Z" fill="#41739d"/>
      <path d="M510.84,144.64q3.38-2.25,7.17-4.9c-8.25-11.23-17.17-23.12-26.58-35.33-47.58-61.68-63.77-86.55-63.77-86.55h0C439,33.91,339.85,258.53,510.84,144.64Z" fill="#073766"/>
      <path d="M320,162.62,260.09,97.77C265.18,118,252.5,214.14,320,162.62Z" fill="#073766"/>
      <g>
        <path d="M449.82,572.38a23.46,23.46,0,0,1-23.44-22.74c-1-33,1.14-79.08,27.17-143.6,12.57-31.15,27.65-51.18,40.95-68.85,1.86-2.48,3.71-4.93,5.52-7.39a23.47,23.47,0,1,1,37.73,27.91q-2.84,3.84-5.76,7.7c-12.12,16.11-24.66,32.76-34.92,58.2-22.76,56.4-24.67,96.2-23.78,124.57a23.46,23.46,0,0,1-22.73,24.18Z" fill="#fff"/>
        <path d="M745.51,494.36a23.47,23.47,0,0,1-23-18.79,237.3,237.3,0,0,0-64.07-119.9,23.46,23.46,0,1,1,33.34-33,284.16,284.16,0,0,1,76.72,143.57,23.46,23.46,0,0,1-23,28.14Z" fill="#fff"/>
        <path d="M793.84,335.27a21.76,21.76,0,0,1-5.39-.68c-96.38-24.53-194.4-33.13-291.32-25.57-35.2,2.75-62.43,8.76-91.26,15.13-5.41,1.19-11,2.42-16.66,3.64A21.81,21.81,0,1,1,380,285.14c5.55-1.19,11.07-2.41,16.42-3.59,30.36-6.71,59-13,97.27-16,101.69-7.94,204.47,1.07,305.48,26.78a21.82,21.82,0,0,1-5.37,43Z" fill="#bfbfbf"/>
        <path d="M410.28,392a23.47,23.47,0,0,1-7.63-45.67,1397.73,1397.73,0,0,1,211.4-54.55c50.93-9,90-7.41,127.84-5.92,18.52.73,36,1.43,54.54.88a23.47,23.47,0,0,1,1.37,46.91c-20.15.59-39.27-.16-57.76-.89-37-1.47-71.89-2.85-117.86,5.24A1350.66,1350.66,0,0,0,417.9,390.76,23.62,23.62,0,0,1,410.28,392Z" fill="#e2e2e2"/>
        <path d="M413.63,396.06a23.47,23.47,0,0,1-7.78-45.61c42.79-15,101.38-35.61,187.51-42.81,74.73-6.25,133.32,4.69,180.41,13.47,6.75,1.26,13.13,2.45,19.41,3.57a23.46,23.46,0,1,1-8.22,46.2c-6.47-1.15-13-2.36-19.8-3.63-46.62-8.7-99.47-18.57-167.89-12.85-74.12,6.2-123.5,21.93-175.86,40.33A23.57,23.57,0,0,1,413.63,396.06Z" fill="#fff"/>
      </g>
    </g>
  </g>
</svg>
