<svg id="Layer_1" data-name="Layer 1" xmlns="http://www.w3.org/2000/svg" viewBox="0 0 37.65 54.81"><defs><style>.cls-1{fill:#fff;}</style></defs><path class="cls-1" d="M26.07,13.93a7,7,0,1,1-7-7,7,7,0,0,1,7,7"/><path class="cls-1" d="M13.81,24.2a3.34,3.34,0,1,1-3.33-3.33,3.33,3.33,0,0,1,3.33,3.33"/><path class="cls-1" d="M20.79,31.34a1.75,1.75,0,1,1-1.74-1.74,1.75,1.75,0,0,1,1.74,1.74"/><path class="cls-1" d="M7.07,39.87C7.07,38.25,7,38.2,6,38l-.35-.07c-.16-.12-.14-.52,0-.59.82.05,1.55.07,2.3.07s1.47,0,2.34-.07a.35.35,0,0,1,0,.59L9.86,38c-.92.14-1,.26-1,1.88v1.31c0,.47,0,.75.12.82a.83.83,0,0,0,.63-.14A28.65,28.65,0,0,0,12.44,39c.49-.56.54-.89.19-1l-.52-.12c-.21-.09-.19-.54.05-.59.65.05,1.34.07,2.09.07s1.19,0,2-.07a.35.35,0,0,1,0,.59,6.57,6.57,0,0,0-1.59.45,9.67,9.67,0,0,0-2.18,1.76l-1.08,1c-.47.47-.45.54-.1,1l2.94,3.52c.84,1,1.19,1.34,2.23,1.41l.32,0a.38.38,0,0,1,0,.59c-.73,0-1.27-.07-2.3-.07-.78,0-1.53,0-2.3.07a.37.37,0,0,1-.1-.59l.33,0c.54-.08.64-.22.28-.64l-2.11-2.56c-.19-.23-.87-1.24-1.31-1.24s-.4.23-.4.89v1.64c0,1.62.09,1.72,1.1,1.88l.45.07c.16.12.14.52-.05.59-.89,0-1.67-.07-2.39-.07s-1.48,0-2.23.07c-.19-.07-.21-.47-.05-.59L6,47c1-.23,1.11-.26,1.11-1.88Z"/><path class="cls-1" d="M19.26,39.87c0-1.62-.11-1.67-1.1-1.88l-.33-.07c-.16-.12-.14-.52.05-.59.8.05,1.53.07,2.28.07s1.47,0,2.39-.07c.19.07.21.47.05.59l-.45.07c-1,.16-1.1.26-1.1,1.88v3.31c0,2.34.77,3.94,3.05,3.94,2.11,0,3-1.6,3-3.92V41c0-2.35-.14-2.89-1.15-3l-.5-.07a.4.4,0,0,1,.05-.59c.75.05,1.29.07,2,.07s1.2,0,1.95-.07a.39.39,0,0,1,0,.59l-.7.07c-.61.07-.8.7-.8,3v2.32c0,3-1.38,4.58-4.36,4.58a4.7,4.7,0,0,1-3.34-1,4.48,4.48,0,0,1-1-3.31Z"/></svg>