<svg id="Layer_1" data-name="Layer 1" xmlns="http://www.w3.org/2000/svg" viewBox="0 0 46.81 24.59"><defs><style>.cls-1{fill:#fff;}</style></defs><path class="cls-1" d="M20.12,10.82c0-1.62-.1-1.67-1.11-1.88l-.35-.07c-.16-.11-.14-.51.05-.58.82,0,1.55.07,2.3.07s1.48,0,2.35-.07a.35.35,0,0,1,0,.58l-.47.07c-.91.14-1,.26-1,1.88v1.31c0,.47,0,.75.12.83a.82.82,0,0,0,.63-.15A28.65,28.65,0,0,0,25.49,10c.49-.56.54-.89.19-1l-.52-.12c-.21-.09-.18-.54.05-.58.66,0,1.34.07,2.09.07s1.2,0,2-.07a.35.35,0,0,1,.05.58,7.14,7.14,0,0,0-1.6.45,9.89,9.89,0,0,0-2.18,1.76l-1.08,1c-.47.47-.45.54-.09,1l2.93,3.52c.84,1,1.2,1.34,2.23,1.41l.33,0a.38.38,0,0,1-.05.59c-.73-.05-1.27-.07-2.3-.07-.77,0-1.53,0-2.3.07a.37.37,0,0,1-.09-.59l.33,0c.53-.07.63-.21.28-.64l-2.12-2.55c-.18-.24-.86-1.25-1.31-1.25s-.4.24-.4.89v1.65c0,1.62.1,1.71,1.1,1.87l.45.07c.16.12.14.52-.05.59-.89-.05-1.66-.07-2.39-.07s-1.48,0-2.23.07c-.19-.07-.21-.47-.05-.59L19,18c1-.23,1.11-.25,1.11-1.87Z"/><path class="cls-1" d="M32.32,10.82c0-1.62-.12-1.67-1.11-1.88l-.32-.07a.39.39,0,0,1,0-.58c.8,0,1.53.07,2.28.07s1.48,0,2.39-.07c.19.07.21.47,0,.58l-.45.07c-1,.17-1.1.26-1.1,1.88v3.31c0,2.35.78,3.94,3,3.94,2.11,0,3-1.59,3-3.92V12c0-2.35-.14-2.89-1.15-3l-.49-.07a.39.39,0,0,1,0-.58c.76,0,1.29.07,2,.07s1.2,0,2-.07a.39.39,0,0,1,0,.58l-.71.07c-.61.07-.8.71-.8,3v2.32c0,3-1.38,4.58-4.36,4.58a4.67,4.67,0,0,1-3.33-1,4.44,4.44,0,0,1-1-3.31Z"/><path class="cls-1" d="M15.53,10.22a3.6,3.6,0,1,1-3.6-3.6,3.6,3.6,0,0,1,3.6,3.6"/><path class="cls-1" d="M9.25,15.47a1.71,1.71,0,1,1-1.7-1.7,1.7,1.7,0,0,1,1.7,1.7"/><path class="cls-1" d="M12.83,19.13a.9.9,0,0,1-1.79,0,.9.9,0,0,1,1.79,0"/></svg>