<svg xmlns="http://www.w3.org/2000/svg" viewBox="0 0 1214 306"><defs><style>.cls-1{fill:#9d3437;}</style></defs><g id="Lag_2" data-name="Lag 2"><path class="cls-1" d="M293.78,239.62c.13-4-3.65-8.08,2.24-9.94,18.54-3.83,33.43,9.72,52,5.87.42-2.18.89-4.34,1.34-6.52,14.35,2.78,29.3,6.41,44.57,9.49q42.18-1.43,83.94-4.69c-.73-2.38-1.07-4.58,1.7-5.46,11.59-1.74,27.63.56,44.26,1.23l7.33-1.12c1.89-1.42,2.38-3.7,2.68-5.12,7.52.23,14.2.84,20.39,1.55,81.62-12.85,164.49-28,254.31-42.89,19-6,38-12,56.3-14.78,27.12-2.5,61.72,1.76,88.16,2.51-4.06-23.06,60.39-34.35,47.53-57.66,17.62.49,44.08,1.26,45.44-5.27,4.1-19.56,17.66-42.12,64.47-53.9,18.31-2.75,46.44,5.48,52.9,1.52,10.17-6.28-23.74-13.79-13.57-20.06-136.14-7.08-267.23,1.4-404.3,1.21C698.8,45.82,384.09,50.3,303.26,45.78c-2.45.1-4.89.18-7.34.29-44.09-1.26-97.65.49-135,9.26-17.12,5.43-34.52,12-51.85,18.4,8.06,3.79,15.52,7.6,22,11.35-17.64-.5-35.28-1-42,3.17-37.56,9.86-16.29,21.4-1.84,37.1,10.4,6.87-3.66,17.41,12.62,24.42l-29.39-.84c-1.35,6.52,36.2-3.34,28,7.35-11.31-2.49-24,1.5-35.71,1.17,4.06,8.86,40.69,3.34,38.88,12-6.34,2-33-11.87-35.28-1-.45,2.18,11.31,2.51,17.18,2.68-36.17,3.33-56.1,13.7-23.08,25.56-11.46-.32-27.67-4.93-39.79-3.44a.7.7,0,0,0,.09.17c6,.37,16.48,2.62,22.07,2.77l-20.64-.58c1.08,1.52,2.31,3,3.6,4.53a70.18,70.18,0,0,0,15.67,2.58c-4.56-.14-9.13-.26-13.71-.39a93.46,93.46,0,0,0,11.67,10.16c16.28,7,31.88,17.31,40.69,17.56C151.25,235.25,222.7,238.9,293.78,239.62Z"/><path class="cls-1" d="M901.37,69c-.12,4,3.51,8.08-2.14,9.95-17.78,3.83-32.07-9.72-49.87-5.88-.41,2.18-.85,4.35-1.28,6.53-13.77-2.78-28.11-6.42-42.75-9.49q-40.46,1.42-80.52,4.69c.7,2.38,1,4.58-1.63,5.45-11.11,1.75-26.5-.55-42.45-1.23-2.36.38-4.71.77-7,1.13-1.81,1.42-2.28,3.7-2.57,5.11-7.21-.22-13.62-.84-19.56-1.55-78.28,12.86-157.77,28-243.93,42.9-18.21,6-36.44,12-54,14.78-26,2.5-59.19-1.76-84.55-2.51C273,162,211.16,173.27,223.5,196.58c-16.9-.5-42.29-1.26-43.59,5.27C176,221.41,163,244,118.08,255.75c-17.57,2.75-44.55-5.48-50.75-1.52-9.75,6.27,22.78,13.79,13,20.06,130.57,7.08,256.31-1.4,387.78-1.21,44.76-10.23,346.61-14.72,424.14-10.19,2.35-.1,4.69-.18,7-.29,42.29,1.26,93.66-.49,129.46-9.27,16.42-5.42,33.11-12,49.73-18.39-7.73-3.8-14.88-7.6-21.09-11.35,16.92.5,33.84,1,40.33-3.17,36-9.86,15.62-21.4,1.76-37.11-10-6.87,3.51-17.4-12.09-24.41,11.25.33,16.88.49,28.18.84,1.3-6.53-34.72,3.34-26.89-7.36,10.84,2.5,23-1.5,34.25-1.16-3.9-8.86-39-3.34-37.29-12.05,6.08-2,31.66,11.87,33.83,1,.43-2.18-10.84-2.51-16.48-2.68,34.7-3.34,53.81-13.7,22.15-25.57,11,.33,26.54,4.94,38.16,3.45,0-.06-.06-.11-.08-.18-5.81-.36-15.81-2.61-21.17-2.76l19.8.58c-1-1.53-2.22-3-3.46-4.53a64.81,64.81,0,0,0-15-2.58l13.15.39a91.31,91.31,0,0,0-11.2-10.17c-15.61-7-30.57-17.3-39-17.56C1038.08,73.41,969.55,69.77,901.37,69Z"/></g></svg>